<svg width="1475" height="853" viewBox="0 0 1475 853" fill="none" xmlns="http://www.w3.org/2000/svg">
<g opacity="0.8" filter="url(#filter0_d)">
<rect width="8.20084" height="242.632" rx="4" transform="matrix(-0.416243 0.909253 0.928774 0.370646 130.93 251.738)" fill="url(#paint0_linear)"/>
<rect width="6.15063" height="182.226" rx="3" transform="matrix(-0.416243 0.909253 0.928774 0.370646 450.521 32.5563)" fill="url(#paint1_linear)"/>
<rect width="9.22594" height="70.474" rx="4.5" transform="matrix(-0.416243 0.909253 0.928774 0.370646 805.028 0)" fill="url(#paint2_linear)"/>
<rect width="30.7531" height="402.708" rx="15" transform="matrix(-0.416243 0.909253 0.928774 0.370646 152.05 216.529)" fill="url(#paint3_linear)"/>
<rect width="23.5774" height="302.031" rx="11.25" transform="matrix(-0.416243 0.909253 0.928774 0.370646 135.701 98.6747)" fill="url(#paint4_linear)"/>
<rect width="19.477" height="402.708" rx="9.73849" transform="matrix(-0.416243 0.909253 0.928774 0.370646 1099.78 364.06)" fill="url(#paint5_linear)"/>
<rect opacity="0.312783" width="4.96445" height="242.847" rx="2.42351" transform="matrix(-0.400603 0.916252 0.935201 0.354119 709.008 534.306)" fill="url(#paint6_linear)"/>
<rect opacity="0.312783" width="4.96445" height="242.847" rx="2.42351" transform="matrix(-0.400603 0.916252 0.935201 0.354119 1024.94 754.906)" fill="url(#paint7_linear)"/>
<rect opacity="0.312783" width="4.96445" height="242.847" rx="2.42351" transform="matrix(-0.400603 0.916252 0.935201 0.354119 1078.32 475.11)" fill="url(#paint8_linear)"/>
<rect width="4.96445" height="100.766" rx="2.42351" transform="matrix(-0.400603 0.916252 0.935201 0.354119 646.421 538.22)" fill="url(#paint9_linear)"/>
<rect opacity="0.169044" width="7.01596" height="75.5748" rx="3.425" transform="matrix(-0.400603 0.916252 0.935201 0.354119 21.6729 494.877)" fill="url(#paint10_linear)"/>
<rect opacity="0.312783" width="8.19382" height="242.847" rx="4" transform="matrix(-0.400603 0.916252 0.935201 0.354119 858.118 504.65)" fill="url(#paint11_linear)"/>
<rect width="4.96445" height="242.847" rx="2.42351" transform="matrix(-0.400603 0.916252 0.935201 0.354119 36.4604 711.775)" fill="url(#paint12_linear)"/>
<rect opacity="0.143965" width="12.2907" height="242.847" rx="6" transform="matrix(-0.400603 0.916252 0.935201 0.354119 7.92383 729.476)" fill="url(#paint13_linear)"/>
</g>
<defs>
<filter id="filter0_d" x="0.90918" y="1.33984" width="1473.71" height="851.414" filterUnits="userSpaceOnUse" color-interpolation-filters="sRGB">
<feFlood flood-opacity="0" result="BackgroundImageFix"/>
<feColorMatrix in="SourceAlpha" type="matrix" values="0 0 0 0 0 0 0 0 0 0 0 0 0 0 0 0 0 0 127 0" result="hardAlpha"/>
<feOffset dy="4"/>
<feGaussianBlur stdDeviation="2"/>
<feComposite in2="hardAlpha" operator="out"/>
<feColorMatrix type="matrix" values="0 0 0 0 0 0 0 0 0 0 0 0 0 0 0 0 0 0 0.25 0"/>
<feBlend mode="normal" in2="BackgroundImageFix" result="effect1_dropShadow"/>
<feBlend mode="normal" in="SourceGraphic" in2="effect1_dropShadow" result="shape"/>
</filter>
<linearGradient id="paint0_linear" x1="-4.65643" y1="-404.036" x2="-35.8176" y2="-403.662" gradientUnits="userSpaceOnUse">
<stop stop-color="#8468F5"/>
<stop offset="1" stop-color="#EC74E7"/>
</linearGradient>
<linearGradient id="paint1_linear" x1="25.1938" y1="-814.386" x2="-27.2658" y2="-814.047" gradientUnits="userSpaceOnUse">
<stop stop-color="#8468F5"/>
<stop offset="1" stop-color="#EC74E7"/>
</linearGradient>
<linearGradient id="paint2_linear" x1="0.105767" y1="-206.406" x2="-48.1023" y2="-203.533" gradientUnits="userSpaceOnUse">
<stop stop-color="#8468F5"/>
<stop offset="1" stop-color="#EC74E7"/>
</linearGradient>
<linearGradient id="paint3_linear" x1="-17.4616" y1="-670.599" x2="-134.247" y2="-667.434" gradientUnits="userSpaceOnUse">
<stop stop-color="#8468F5"/>
<stop offset="1" stop-color="#EC74E7"/>
</linearGradient>
<linearGradient id="paint4_linear" x1="82.0701" y1="-1567.65" x2="-165.328" y2="-1564.93" gradientUnits="userSpaceOnUse">
<stop stop-color="#8468F5"/>
<stop offset="0.946455" stop-color="#E673E8"/>
<stop offset="1" stop-color="#EC74E7"/>
</linearGradient>
<linearGradient id="paint5_linear" x1="-11.059" y1="-670.599" x2="-85.0557" y2="-669.329" gradientUnits="userSpaceOnUse">
<stop stop-color="#8468F5"/>
<stop offset="1" stop-color="#EC74E7"/>
</linearGradient>
<linearGradient id="paint6_linear" x1="-2.81881" y1="-404.394" x2="-21.6842" y2="-404.257" gradientUnits="userSpaceOnUse">
<stop stop-color="#8468F5"/>
<stop offset="1" stop-color="#EC74E7"/>
</linearGradient>
<linearGradient id="paint7_linear" x1="-2.81881" y1="-404.394" x2="-21.6842" y2="-404.257" gradientUnits="userSpaceOnUse">
<stop stop-color="#8468F5"/>
<stop offset="1" stop-color="#EC74E7"/>
</linearGradient>
<linearGradient id="paint8_linear" x1="-2.81881" y1="-404.394" x2="-21.6842" y2="-404.257" gradientUnits="userSpaceOnUse">
<stop stop-color="#8468F5"/>
<stop offset="1" stop-color="#EC74E7"/>
</linearGradient>
<linearGradient id="paint9_linear" x1="-2.81881" y1="-167.798" x2="-21.6794" y2="-167.469" gradientUnits="userSpaceOnUse">
<stop stop-color="#8468F5"/>
<stop offset="1" stop-color="#EC74E7"/>
</linearGradient>
<linearGradient id="paint10_linear" x1="-3.98365" y1="-125.849" x2="-30.6175" y2="-124.971" gradientUnits="userSpaceOnUse">
<stop stop-color="#8468F5"/>
<stop offset="1" stop-color="#EC74E7"/>
</linearGradient>
<linearGradient id="paint11_linear" x1="-4.65244" y1="-404.394" x2="-35.787" y2="-404.021" gradientUnits="userSpaceOnUse">
<stop stop-color="#8468F5"/>
<stop offset="1" stop-color="#EC74E7"/>
</linearGradient>
<linearGradient id="paint12_linear" x1="-2.81881" y1="-404.394" x2="-21.6842" y2="-404.257" gradientUnits="userSpaceOnUse">
<stop stop-color="#8468F5"/>
<stop offset="1" stop-color="#EC74E7"/>
</linearGradient>
<linearGradient id="paint13_linear" x1="-6.97866" y1="-404.394" x2="-53.6721" y2="-403.555" gradientUnits="userSpaceOnUse">
<stop stop-color="#8468F5"/>
<stop offset="1" stop-color="#EC74E7"/>
</linearGradient>
</defs>
</svg>
